<svg width="55" height="55" viewBox="0 0 55 55" fill="none" xmlns="http://www.w3.org/2000/svg">
<g filter="url(#filter0_i_556_70)">
<rect width="55" height="55" rx="27.5" transform="matrix(-1 0 0 1 55 0)" fill="#3DAD5D"/>
</g>
<path d="M18.2929 27.7071C17.9024 27.3166 17.9024 26.6834 18.2929 26.2929L24.6569 19.9289C25.0474 19.5384 25.6805 19.5384 26.0711 19.9289C26.4616 20.3195 26.4616 20.9526 26.0711 21.3431L20.4142 27L26.0711 32.6569C26.4616 33.0474 26.4616 33.6805 26.0711 34.0711C25.6805 34.4616 25.0474 34.4616 24.6569 34.0711L18.2929 27.7071ZM36 28H19V26H36V28Z" fill="white"/>
<defs>
<filter id="filter0_i_556_70" x="0" y="0" width="55" height="55" filterUnits="userSpaceOnUse" color-interpolation-filters="sRGB">
<feFlood flood-opacity="0" result="BackgroundImageFix"/>
<feBlend mode="normal" in="SourceGraphic" in2="BackgroundImageFix" result="shape"/>
<feColorMatrix in="SourceAlpha" type="matrix" values="0 0 0 0 0 0 0 0 0 0 0 0 0 0 0 0 0 0 127 0" result="hardAlpha"/>
<feOffset/>
<feGaussianBlur stdDeviation="15"/>
<feComposite in2="hardAlpha" operator="arithmetic" k2="-1" k3="1"/>
<feColorMatrix type="matrix" values="0 0 0 0 1 0 0 0 0 1 0 0 0 0 1 0 0 0 0.4 0"/>
<feBlend mode="normal" in2="shape" result="effect1_innerShadow_556_70"/>
</filter>
</defs>
</svg>
