<svg width="14" height="14" fill="none" xmlns="http://www.w3.org/2000/svg"><g id="Frame" clip-path="url(#clip0_556_974)"><path id="Vector" d="M9.987 13.137c-.633-.015-1.37-.224-2.08-.531-1.288-.556-2.422-1.351-3.47-2.273C3.19 9.238 2.1 8.004 1.234 6.583.714 5.73.288 4.834.091 3.845c-.11-.55-.134-1.1.004-1.652.12-.47.375-.897.734-1.225.246-.231.486-.469.731-.7.377-.36.853-.355 1.22.01a567.03 567.03 0 012.05 2.053c.359.362.359.855 0 1.22-.177.18-.36.355-.535.535-.417.425-.499.998-.217 1.521a8.394 8.394 0 003.458 3.458c.522.282 1.095.2 1.52-.216.184-.179.363-.364.545-.543.355-.35.85-.353 1.202 0 .695.69 1.387 1.382 2.077 2.077.343.345.347.826.013 1.183-.222.237-.456.462-.674.704-.56.613-1.264.874-2.232.868z" fill="#fff"/></g><defs><clipPath id="clip0_556_974"><path fill="#fff" d="M0 0h13.139v13.136H0z"/></clipPath></defs></svg>