<svg width="29" height="29" fill="none" xmlns="http://www.w3.org/2000/svg"><g filter="url(#filter0_i_556_982)"><circle cx="14.5" cy="14.5" r="14.5" fill="url(#paint0_linear_556_982)"/></g><g clip-path="url(#clip0_556_982)" fill="#fff"><path d="M7.999 21.015l.45-1.637c.168-.61.334-1.22.506-1.83a.292.292 0 00-.031-.242 6.783 6.783 0 01-.867-3.403c.026-2.967 1.833-5.515 4.657-6.47 2.68-.905 5.112-.392 7.178 1.542 1.132 1.059 1.815 2.407 2.03 3.96.269 1.945-.164 3.72-1.382 5.266-1.166 1.483-2.707 2.355-4.575 2.625-1.465.214-2.855-.047-4.171-.718a.313.313 0 00-.203-.023c-1.146.294-2.291.591-3.435.891a2.965 2.965 0 01-.157.039zm1.683-1.677c.065-.015.1-.021.135-.03.639-.165 1.278-.329 1.915-.5a.298.298 0 01.253.036c1.34.805 2.778 1.068 4.306.72 3.09-.705 5.152-3.697 4.38-6.976-.737-3.126-3.978-5.059-7.086-4.245a5.815 5.815 0 00-4.348 5.609c0 1.148.331 2.197.959 3.155a.26.26 0 01.036.24c-.1.344-.194.691-.29 1.038-.083.31-.168.62-.259.953h-.001z"/><path d="M16.86 17.272c-.167-.02-.34-.02-.5-.066-.892-.26-1.746-.601-2.476-1.198-.578-.474-1.06-1.04-1.522-1.62a4.598 4.598 0 01-.72-1.217c-.32-.839-.15-1.581.453-2.234a.602.602 0 01.433-.204 5.13 5.13 0 01.464.004c.137.007.205.11.255.22.088.194.168.392.25.59.11.255.212.512.325.765.062.138.061.265-.027.386-.13.176-.26.35-.398.52-.136.17-.15.229-.032.425.556.922 1.322 1.602 2.325 2.007.215.087.287.073.438-.11.164-.2.327-.402.489-.605.107-.136.174-.168.342-.11.184.066.362.146.54.229.198.092.39.197.588.288.105.047.219.073.328.114a.225.225 0 01.153.235c-.01.48-.125.906-.557 1.194-.349.237-.719.394-1.151.387z"/></g><defs><linearGradient id="paint0_linear_556_982" x1="21.543" y1="0" x2="14.5" y2="29" gradientUnits="userSpaceOnUse"><stop stop-color="#88EE7F"/><stop offset="1" stop-color="#64D85A"/></linearGradient><clipPath id="clip0_556_982"><path fill="#fff" transform="translate(8 7)" d="M0 0h14v14.015H0z"/></clipPath><filter id="filter0_i_556_982" x="0" y="0" width="29" height="29" filterUnits="userSpaceOnUse" color-interpolation-filters="sRGB"><feFlood flood-opacity="0" result="BackgroundImageFix"/><feBlend in="SourceGraphic" in2="BackgroundImageFix" result="shape"/><feColorMatrix in="SourceAlpha" values="0 0 0 0 0 0 0 0 0 0 0 0 0 0 0 0 0 0 127 0" result="hardAlpha"/><feOffset/><feGaussianBlur stdDeviation="2.5"/><feComposite in2="hardAlpha" operator="arithmetic" k2="-1" k3="1"/><feColorMatrix values="0 0 0 0 1 0 0 0 0 1 0 0 0 0 1 0 0 0 1 0"/><feBlend in2="shape" result="effect1_innerShadow_556_982"/></filter></defs></svg>