<svg width="21" height="19" fill="none" xmlns="http://www.w3.org/2000/svg"><g id="Layer_1" clip-path="url(#clip0_556_593)" fill="#E95229"><path id="Vector" d="M18.253 13.387c0 .537.008 1.06-.001 1.584-.01.625-.385 1.065-.98 1.16-.341.055-.638-.056-.904-.265-.565-.442-1.128-.885-1.694-1.325-.998-.776-2.135-1.15-3.393-1.154-1.743-.006-3.486.003-5.23-.004-1.36-.004-2.44-.851-2.736-2.141a2.775 2.775 0 01-.068-.619c-.004-2.622-.005-5.243-.002-7.866A2.735 2.735 0 016.008.001c3.987-.002 7.974-.002 11.961 0 1.558 0 2.767 1.212 2.769 2.776.003 2.576 0 5.15 0 7.727 0 1.511-.854 2.553-2.34 2.852a6.624 6.624 0 00-.145.031zm-6.276-7.503h2.635c.554 0 1.11.006 1.664-.004a.724.724 0 00.727-.805c-.039-.405-.361-.67-.824-.67H7.81c-.053 0-.108-.002-.161.004a.745.745 0 00-.658.89c.065.348.37.583.779.584 1.402.003 2.806.001 4.208.001zM9.862 8.992c.716 0 1.434.01 2.15-.003a.709.709 0 00.718-.722.72.72 0 00-.723-.744c-1.434-.01-2.868-.006-4.301-.003a.703.703 0 00-.605.327.724.724 0 00.588 1.14c.724.022 1.449.005 2.174.005h-.001z"/><path id="Vector_2" d="M13.22 15.353c-.458.754-1.087 1.16-1.935 1.168-1.272.013-2.545.013-3.818 0-1.036-.009-1.956.287-2.76.944-.352.288-.716.561-1.073.845-.36.287-.75.396-1.18.18-.435-.217-.606-.59-.596-1.062.006-.3 0-.601 0-.914-.078-.024-.148-.047-.22-.068-.972-.28-1.63-1.13-1.633-2.139-.007-1.99-.007-3.98 0-5.97a2.216 2.216 0 011.512-2.09c.072-.023.146-.039.247-.066v4.37c.002 2.235 1.503 3.967 3.717 4.285.22.031.446.028.67.028 1.688.002 3.378.002 5.067.002.576 0 1.136.093 1.667.323.104.046.204.1.334.163l.001.001z"/></g><defs><clipPath id="clip0_556_593"><path fill="#fff" d="M0 0h20.739v18.605H0z"/></clipPath></defs></svg>