<svg width="21" height="16" fill="none" xmlns="http://www.w3.org/2000/svg"><g id="Layer_1" clip-path="url(#clip0_556_597)" fill="#131313" fill-opacity=".3"><path id="Vector" d="M5.862 8.406C5.858 4.224 9.238.843 13.43.837A7.562 7.562 0 0121 8.382a7.572 7.572 0 01-7.594 7.595c-4.172-.008-7.54-3.389-7.545-7.57h.001zm13.671.008a6.09 6.09 0 00-6.111-6.11c-3.364-.006-6.094 2.73-6.092 6.107a6.094 6.094 0 006.1 6.098c3.38-.003 6.109-2.729 6.104-6.095z"/><path id="Vector_2" d="M2.688 7.674h1.875c.478.001.812.312.805.744-.006.423-.336.721-.805.722-1.258.002-2.515.002-3.773 0-.468 0-.79-.304-.79-.733 0-.431.32-.73.79-.732.633-.002 1.265 0 1.898 0z"/><path id="Vector_3" d="M3.154 6.21H1.76c-.46-.003-.79-.316-.787-.74.003-.416.328-.724.776-.725.944-.003 1.889-.003 2.833 0 .461 0 .79.314.787.738-.004.423-.333.725-.799.727-.472.002-.944 0-1.417 0z"/><path id="Vector_4" d="M3.173 12.073c-.472 0-.944.002-1.417 0-.459-.003-.789-.318-.783-.742.004-.416.33-.722.778-.723.945-.003 1.89-.003 2.834 0 .459 0 .789.317.784.742-.004.414-.331.72-.78.723-.472.003-.944 0-1.417 0h.001z"/><path id="Vector_5" d="M5.118 3.278c-.465 0-.931.002-1.397 0-.468-.003-.79-.305-.79-.735 0-.431.321-.729.793-.73.93-.002 1.863-.002 2.793 0 .468 0 .801.3.808.723.008.429-.332.741-.81.743-.466.002-.931 0-1.398 0l.001-.001z"/><path id="Vector_6" d="M5.123 15.004c-.474 0-.946.003-1.42 0-.452-.004-.77-.308-.772-.73-.002-.423.314-.733.765-.734a368.95 368.95 0 012.862 0c.441.002.773.328.766.74-.006.407-.329.72-.76.724-.481.005-.962.001-1.443.001h.002z"/><path id="Vector_7" d="M14.165 6.247c0 .557-.007 1.115.006 1.672a.511.511 0 00.13.313c.526.543 1.065 1.072 1.598 1.609a.7.7 0 01.168.781c-.1.273-.31.43-.6.468a.68.68 0 01-.585-.2c-.66-.656-1.327-1.307-1.97-1.98a.825.825 0 01-.204-.513 229.614 229.614 0 01-.007-3.893.717.717 0 01.72-.733.72.72 0 01.743.735c.006.58.001 1.161.001 1.741z"/></g><defs><clipPath id="clip0_556_597"><path fill="#fff" transform="translate(0 .837)" d="M0 0h21v15.14H0z"/></clipPath></defs></svg>