<svg width="1920" height="1661" fill="none" xmlns="http://www.w3.org/2000/svg"><g style="mix-blend-mode:darken"><mask id="mask0_1726_45" style="mask-type:alpha" maskUnits="userSpaceOnUse" x="-28" y="-1" width="2236" height="1663"><rect x="-28" y="1661" width="1661" height="2236" rx="6" transform="rotate(-90 -28 1661)" fill="#FAF9F8" fill-opacity=".85"/></mask><g mask="url(#mask0_1726_45)"><ellipse cx="198.822" cy="1067.76" rx="198.822" ry="1067.76" transform="matrix(.77645 -.63018 .70874 .70547 -61.522 492.689)" fill="url(#paint0_radial_1726_45)"/><ellipse cx="265.727" cy="809.977" rx="265.727" ry="809.977" transform="matrix(-.75684 .6536 -.73027 -.68315 1946.24 625.979)" fill="url(#paint1_radial_1726_45)"/><ellipse cx="227.358" cy="1718.86" rx="227.358" ry="1718.86" transform="matrix(-.75684 .6536 -.73027 -.68315 2642.81 1900.58)" fill="url(#paint2_radial_1726_45)" fill-opacity=".7"/><ellipse cx="1359.47" cy="246.127" rx="1359.47" ry="246.127" transform="scale(-1.0518 -.94537) rotate(45 2079.05 -2975.07)" fill="url(#paint3_radial_1726_45)"/></g></g><g filter="url(#filter0_b_1726_45)"><path fill-rule="evenodd" clip-rule="evenodd" d="M922.173 1219.35c225.977 0 409.177-183.2 409.177-409.177 0-225.98-183.2-409.173-409.177-409.173C696.193 401 513 584.193 513 810.173c0 225.977 183.193 409.177 409.173 409.177zm.362-110.08c165.385 0 299.455-134.073 299.455-299.459 0-165.385-134.07-299.457-299.455-299.457S623.078 644.426 623.078 809.811c0 165.386 134.072 299.459 299.457 299.459z" fill="#fff" fill-opacity=".4"/></g><g filter="url(#filter1_b_1726_45)"><path fill-rule="evenodd" clip-rule="evenodd" d="M922.5 1465c361.47 0 654.5-293.03 654.5-654.5S1283.97 156 922.5 156 268 449.03 268 810.5 561.03 1465 922.5 1465zm.443-153.22c277.097 0 501.727-224.63 501.727-501.723 0-277.095-224.63-501.724-501.727-501.724-277.095 0-501.724 224.629-501.724 501.724 0 277.093 224.629 501.723 501.724 501.723z" fill="#fff" fill-opacity=".3"/></g><defs><radialGradient id="paint0_radial_1726_45" cx="0" cy="0" r="1" gradientUnits="userSpaceOnUse" gradientTransform="scale(198.822 1067.76) rotate(90 0 1)"><stop stop-color="#D1D1D1"/><stop offset="1" stop-color="#F0F0F0" stop-opacity="0"/></radialGradient><radialGradient id="paint1_radial_1726_45" cx="0" cy="0" r="1" gradientUnits="userSpaceOnUse" gradientTransform="scale(265.727 809.977) rotate(90 0 1)"><stop stop-color="#D1D1D1"/><stop offset="1" stop-color="#F0F0F0" stop-opacity="0"/></radialGradient><radialGradient id="paint2_radial_1726_45" cx="0" cy="0" r="1" gradientUnits="userSpaceOnUse" gradientTransform="matrix(0 1718.86 -227.358 0 227.358 1718.86)"><stop stop-color="#D1D1D1"/><stop offset="1" stop-color="#F0F0F0" stop-opacity="0"/></radialGradient><radialGradient id="paint3_radial_1726_45" cx="0" cy="0" r="1" gradientUnits="userSpaceOnUse" gradientTransform="scale(1359.47 246.127) rotate(90 0 1)"><stop stop-color="#D1D1D1"/><stop offset="1" stop-color="#F0F0F0" stop-opacity="0"/></radialGradient><filter id="filter0_b_1726_45" x="453" y="341" width="938.347" height="938.346" filterUnits="userSpaceOnUse" color-interpolation-filters="sRGB"><feFlood flood-opacity="0" result="BackgroundImageFix"/><feGaussianBlur in="BackgroundImageFix" stdDeviation="30"/><feComposite in2="SourceAlpha" operator="in" result="effect1_backgroundBlur_1726_45"/><feBlend in="SourceGraphic" in2="effect1_backgroundBlur_1726_45" result="shape"/></filter><filter id="filter1_b_1726_45" x="208" y="96" width="1429" height="1429" filterUnits="userSpaceOnUse" color-interpolation-filters="sRGB"><feFlood flood-opacity="0" result="BackgroundImageFix"/><feGaussianBlur in="BackgroundImageFix" stdDeviation="30"/><feComposite in2="SourceAlpha" operator="in" result="effect1_backgroundBlur_1726_45"/><feBlend in="SourceGraphic" in2="effect1_backgroundBlur_1726_45" result="shape"/></filter></defs></svg>