<svg width="16" height="16" fill="none" xmlns="http://www.w3.org/2000/svg"><path id="Vector" d="M9.333 13v-2a.325.325 0 00-.093-.24.324.324 0 00-.24-.093H7a.324.324 0 00-.24.093.325.325 0 00-.093.24v2c0 .097.03.177.093.24a.324.324 0 00.24.093h2a.324.324 0 00.24-.093.325.325 0 00.093-.24zM12 6c0-.611-.193-1.177-.578-1.698a3.944 3.944 0 00-1.443-1.208 3.956 3.956 0 00-1.77-.427c-1.688 0-2.976.74-3.865 2.218-.104.167-.077.313.083.438l1.375 1.042A.294.294 0 006 6.427a.307.307 0 00.26-.125c.368-.472.667-.792.896-.958.236-.167.535-.25.896-.25.333 0 .63.09.89.27.261.181.391.386.391.615 0 .264-.07.476-.208.636-.139.16-.375.316-.708.468a3.568 3.568 0 00-1.203.901c-.365.407-.547.842-.547 1.308v.375c0 .097.03.177.093.24A.324.324 0 007 10h2a.324.324 0 00.24-.094.324.324 0 00.093-.24c0-.131.075-.303.224-.515.15-.212.339-.384.568-.516.222-.125.392-.224.51-.296a4.39 4.39 0 00.48-.365c.201-.17.355-.337.463-.5.108-.163.205-.373.292-.63S12 6.306 12 6zm4 2c0 1.451-.358 2.79-1.073 4.016a7.965 7.965 0 01-2.911 2.911A7.826 7.826 0 018 16a7.826 7.826 0 01-4.016-1.073 7.964 7.964 0 01-2.911-2.911A7.826 7.826 0 010 8c0-1.451.358-2.79 1.073-4.016a7.964 7.964 0 012.911-2.911A7.826 7.826 0 018 0c1.451 0 2.79.358 4.016 1.073a7.964 7.964 0 012.911 2.911A7.826 7.826 0 0116 8z" fill="#868686" fill-opacity=".5"/></svg>