<svg width="1920" height="1010" viewBox="0 0 1920 1010" fill="none" xmlns="http://www.w3.org/2000/svg">
<g style="mix-blend-mode:darken">
<mask id="mask0_540_110" style="mask-type:alpha" maskUnits="userSpaceOnUse" x="-24" y="0" width="2237" height="1010">
<rect x="-23" y="1009.29" width="1009.29" height="2236" rx="6" transform="rotate(-90 -23 1009.29)" fill="#FAF9F8" fill-opacity="0.85"/>
</mask>
<g mask="url(#mask0_540_110)">
<ellipse cx="172.128" cy="884.423" rx="172.128" ry="884.423" transform="matrix(0.896865 -0.442304 0.855666 0.517529 -56.5215 299.378)" fill="url(#paint0_radial_540_110)"/>
<ellipse cx="227.121" cy="680.389" rx="227.121" ry="680.389" transform="matrix(-0.885491 0.464656 -0.869363 -0.494174 1951.24 380.369)" fill="url(#paint1_radial_540_110)"/>
<ellipse cx="194.327" cy="1443.86" rx="194.327" ry="1443.86" transform="matrix(-0.885491 0.464656 -0.869363 -0.494174 2647.8 1154.87)" fill="url(#paint2_radial_540_110)" fill-opacity="0.7"/>
<ellipse cx="1152.05" cy="208.574" rx="1152.05" ry="208.574" transform="matrix(-0.877639 -0.479323 0.877639 -0.479323 1577.16 1345.05)" fill="url(#paint3_radial_540_110)"/>
</g>
</g>
<defs>
<radialGradient id="paint0_radial_540_110" cx="0" cy="0" r="1" gradientUnits="userSpaceOnUse" gradientTransform="translate(172.128 884.423) rotate(90) scale(884.423 172.128)">
<stop stop-color="#D1D1D1"/>
<stop offset="1" stop-color="#F0F0F0" stop-opacity="0"/>
</radialGradient>
<radialGradient id="paint1_radial_540_110" cx="0" cy="0" r="1" gradientUnits="userSpaceOnUse" gradientTransform="translate(227.121 680.389) rotate(90) scale(680.389 227.121)">
<stop stop-color="#D1D1D1"/>
<stop offset="1" stop-color="#F0F0F0" stop-opacity="0"/>
</radialGradient>
<radialGradient id="paint2_radial_540_110" cx="0" cy="0" r="1" gradientUnits="userSpaceOnUse" gradientTransform="translate(194.327 1443.86) rotate(90) scale(1443.86 194.327)">
<stop stop-color="#D1D1D1"/>
<stop offset="1" stop-color="#F0F0F0" stop-opacity="0"/>
</radialGradient>
<radialGradient id="paint3_radial_540_110" cx="0" cy="0" r="1" gradientUnits="userSpaceOnUse" gradientTransform="translate(1152.05 208.574) rotate(90) scale(208.574 1152.05)">
<stop stop-color="#D1D1D1"/>
<stop offset="1" stop-color="#F0F0F0" stop-opacity="0"/>
</radialGradient>
</defs>
</svg>
