<svg width="1920" height="1010" fill="none" xmlns="http://www.w3.org/2000/svg"><g style="mix-blend-mode:darken"><mask id="mask0_540_110" style="mask-type:alpha" maskUnits="userSpaceOnUse" x="-24" y="0" width="2237" height="1010"><rect x="-23" y="1009.29" width="1009.29" height="2236" rx="6" transform="rotate(-90 -23 1009.29)" fill="#FAF9F8" fill-opacity=".85"/></mask><g mask="url(#mask0_540_110)"><ellipse cx="172.128" cy="884.423" rx="172.128" ry="884.423" transform="matrix(.89687 -.4423 .85567 .51753 -56.522 299.378)" fill="url(#paint0_radial_540_110)"/><ellipse cx="227.121" cy="680.389" rx="227.121" ry="680.389" transform="matrix(-.8855 .46466 -.86936 -.49417 1951.24 380.369)" fill="url(#paint1_radial_540_110)"/><ellipse cx="194.327" cy="1443.86" rx="194.327" ry="1443.86" transform="matrix(-.8855 .46466 -.86936 -.49417 2647.8 1154.87)" fill="url(#paint2_radial_540_110)" fill-opacity=".7"/><ellipse cx="1152.05" cy="208.574" rx="1152.05" ry="208.574" transform="scale(-1.24117 -.67787) rotate(45 1759.842 -2526)" fill="url(#paint3_radial_540_110)"/></g></g><defs><radialGradient id="paint0_radial_540_110" cx="0" cy="0" r="1" gradientUnits="userSpaceOnUse" gradientTransform="scale(172.128 884.423) rotate(90 0 1)"><stop stop-color="#D1D1D1"/><stop offset="1" stop-color="#F0F0F0" stop-opacity="0"/></radialGradient><radialGradient id="paint1_radial_540_110" cx="0" cy="0" r="1" gradientUnits="userSpaceOnUse" gradientTransform="scale(227.121 680.389) rotate(90 0 1)"><stop stop-color="#D1D1D1"/><stop offset="1" stop-color="#F0F0F0" stop-opacity="0"/></radialGradient><radialGradient id="paint2_radial_540_110" cx="0" cy="0" r="1" gradientUnits="userSpaceOnUse" gradientTransform="scale(194.327 1443.86) rotate(90 0 1)"><stop stop-color="#D1D1D1"/><stop offset="1" stop-color="#F0F0F0" stop-opacity="0"/></radialGradient><radialGradient id="paint3_radial_540_110" cx="0" cy="0" r="1" gradientUnits="userSpaceOnUse" gradientTransform="scale(1152.05 208.574) rotate(90 0 1)"><stop stop-color="#D1D1D1"/><stop offset="1" stop-color="#F0F0F0" stop-opacity="0"/></radialGradient></defs></svg>