<svg width="26" height="40" fill="none" xmlns="http://www.w3.org/2000/svg"><path class="map-circle-placemark__outline" fill-rule="evenodd" clip-rule="evenodd" d="M11.308 25.902C4.928 25.072 0 19.614 0 13.005 0 5.824 5.82 0 13 0s13 5.824 13 13.005a12.98 12.98 0 01-.953 4.896c-1.348 3.576-4.204 8.455-6.79 12.544-2.618 4.142-5.074 7.651-5.71 8.525a2.517 2.517 0 01-4.44-2.205m3.201-10.863l-3.2 10.86z" fill="#fff"/><path d="M13.875 24.268a.201.201 0 00-.2-.255c-.224.005-.449-.002-.675-.002-6.075 0-11-4.927-11-11.006C2 6.927 6.925 2 13 2s11 4.927 11 11.005c0 1.475-.29 2.881-.816 4.167-2.526 6.726-11.035 18.945-12.254 20.621a.517.517 0 01-.906-.461l3.85-13.064z" fill="#E95229"/><path d="M13 20.998a8 8 0 100-16 8 8 0 000 16z" fill="#fff"/></svg>