<svg width="34" height="31" fill="none" xmlns="http://www.w3.org/2000/svg"><g id="Frame" clip-path="url(#clip0_556_3335)" fill="#2B2927"><path id="Vector" d="M24.605 22.738h-2.26c-.698 0-1.163-.411-1.17-1.018-.006-.608.457-1.047 1.174-1.05 1.325 0 2.65.008 3.973 0 2.602-.02 4.703-1.746 5.224-4.278.646-3.155-1.825-6.236-5.04-6.282h-1.422c-.814 0-1.211-.38-1.236-1.196-.055-1.844-.73-3.431-2.08-4.678-1.95-1.803-4.255-2.333-6.764-1.467-2.508.866-3.962 2.679-4.426 5.28-.045.32-.072.642-.082.965-.046.694-.45 1.067-1.145 1.092-.846.03-1.714-.018-2.537.146-2.455.491-4.17 2.749-4.112 5.31.055 2.456 1.921 4.608 4.364 5.018a7.45 7.45 0 001.156.084c1.271.01 2.542 0 3.812 0 .822.007 1.34.7 1.063 1.403-.141.353-.402.635-.786.635-1.945 0-3.906.225-5.832-.139-3.415-.646-5.881-3.76-5.848-7.287.035-3.47 2.585-6.518 5.984-7.109a12.29 12.29 0 011.604-.129c.199-.01.273-.056.304-.259a8.746 8.746 0 0117.301.01c.042.285.198.252.378.248 1.9-.029 3.6.55 4.999 1.831 2.259 2.068 3.063 4.642 2.197 7.585-.866 2.943-2.926 4.678-5.95 5.184-.926.155-1.887.1-2.833.14l-.01-.04z"/><path id="Vector_2" d="M18.21 26.72c.545-.55 1.02-1.034 1.499-1.508.338-.34.738-.439 1.181-.259a1.02 1.02 0 01.327 1.665c-.419.448-.863.872-1.292 1.306-.64.64-1.277 1.282-1.92 1.918-.533.529-1.114.533-1.642.008a844.308 844.308 0 01-3.152-3.153c-.466-.467-.493-1.103-.077-1.525.416-.423 1.064-.408 1.551.072.487.48.928.93 1.462 1.465v-9.068c0-.746.575-1.23 1.268-1.08.487.104.8.53.8 1.102v6.332l-.005 2.725z"/></g><defs><clipPath id="clip0_556_3335"><path fill="#fff" transform="translate(.631 .316)" d="M0 0h33.105v29.931H0z"/></clipPath></defs></svg>