<svg width="15" height="15" fill="none" xmlns="http://www.w3.org/2000/svg"><g id="Frame" clip-path="url(#clip0_556_362)" fill="#fff"><path id="Vector" d="M6.616 9.764V.842c0-.506.339-.852.817-.841a.78.78 0 01.77.737c.003.066.001.132.001.198v8.829l.499-.457c.8-.734 1.598-1.47 2.4-2.202a.751.751 0 01.827-.159.74.74 0 01.494.648c.03.277-.077.504-.28.692l-1.883 1.74c-.602.558-1.206 1.115-1.81 1.673-.67.62-1.405.625-2.073.008-1.227-1.132-2.453-2.267-3.68-3.4-.239-.22-.34-.488-.267-.804.138-.597.84-.8 1.305-.378.653.592 1.3 1.192 1.95 1.788l.928.85h.002z"/><path id="Vector_2" d="M1.59 13.226h11.644v-.18c0-.91-.005-1.82.002-2.73a.785.785 0 011.106-.725c.306.127.473.37.476.694.01 1.09.013 2.183 0 3.274-.01.675-.585 1.228-1.273 1.26-.05.002-.099.002-.148.002H1.424c-.675 0-1.198-.362-1.367-.957a1.508 1.508 0 01-.054-.407 796.063 796.063 0 01-.002-3.091c0-.491.326-.835.788-.838.47-.003.8.34.8.84.002.887 0 1.775 0 2.663v.195z"/></g><defs><clipPath id="clip0_556_362"><path fill="#fff" d="M0 0h14.826v14.822H0z"/></clipPath></defs></svg>