<svg width="22" height="15" fill="none" xmlns="http://www.w3.org/2000/svg"><g id="f96f0158-4c44-4625-b0fc-88b1246d40e5" clip-path="url(#clip0_556_341)" fill="#D3D3D3"><path id="Vector" d="M1.096.126c.305-.04.61-.116.916-.117C7.052.001 12.091 0 17.129.004c.758 0 1.514-.012 2.27.006.278.007.555.083.884.132-.09.1-.128.147-.17.19-2.682 2.666-5.363 5.334-8.045 8.004-.578.574-1.257.788-2.034.5a2.13 2.13 0 01-.742-.479C6.582 5.679 3.88 2.994 1.182.301 1.153.272 1.127.241 1.1.21L1.096.126z"/><path id="Vector_2" d="M7.52 8.36c.32.324.596.607.878.884 1.313 1.294 3.211 1.295 4.524 0 .282-.277.555-.563.857-.87l6.504 6.463c-.276.06-.5.111-.727.155a1.024 1.024 0 01-.207.006c-5.788 0-11.576-.002-17.364-.006-.297 0-.592-.083-.852-.116L7.519 8.36z"/><path id="Vector_3" d="M6.514 7.503l-6.297 6.42-.077-.018c-.047-.254-.133-.508-.133-.763-.01-3.76-.01-7.519 0-11.28 0-.254.083-.51.133-.764l.075-.02 6.299 6.425z"/><path id="Vector_4" d="M14.81 7.497l6.305-6.437c.146.285.217.602.207.922v5.64c0 1.804.005 3.607-.006 5.414 0 .29-.083.583-.122.872l-.084.02-6.3-6.43z"/></g><defs><clipPath id="clip0_556_341"><path fill="#fff" d="M0 0h21.326v15H0z"/></clipPath></defs></svg>