<svg width="19" height="20" fill="none" xmlns="http://www.w3.org/2000/svg"><g id="bb5ed73c-b090-4e88-9564-a52dce9f38a8" clip-path="url(#clip0_556_351)"><path id="Vector" d="M14.239 19.022a9.534 9.534 0 01-2.493-.583c-2.037-.756-3.82-1.932-5.456-3.343-2.05-1.769-3.759-3.815-5.016-6.223A12.178 12.178 0 01.034 5.32c-.073-.423-.038-.801.194-1.173.872-1.39 1.879-2.664 3.14-3.725.079-.069.17-.126.255-.187.534-.387.982-.266 1.473.13.061.05.116.108.162.173.872 1.234 1.718 2.487 2.353 3.867.088.207.163.418.225.634A.936.936 0 017.63 6c-.306.326-.642.625-.98.92-.445.391-.455.387-.222.932.986 2.301 2.644 3.91 4.975 4.824.214.085.347.08.5-.117.276-.353.58-.684.884-1.014.39-.425.872-.555 1.401-.318.664.292 1.311.618 1.94.98.775.46 1.516.982 2.266 1.487.292.201.497.504.575.85a.719.719 0 01-.068.573 4.17 4.17 0 01-.42.621 15.001 15.001 0 01-3.796 3.11 2.67 2.67 0 01-.447.174z" fill="#D3D3D3"/></g><defs><clipPath id="clip0_556_351"><path fill="#fff" d="M0 0h19v19.022H0z"/></clipPath></defs></svg>