<svg width="12" height="20" fill="none" xmlns="http://www.w3.org/2000/svg"><g id="Frame" clip-path="url(#clip0_556_824)"><path id="Vector" d="M12 6.01c-.012.737-.136 1.558-.506 2.33-1.617 3.377-3.232 6.754-4.853 10.13-.073.155-.17.305-.285.432-.211.231-.507.229-.718-.002a1.636 1.636 0 01-.269-.397C3.74 15.069 2.12 11.633.487 8.2c-.49-1.032-.586-2.107-.395-3.214C.515 2.54 2.339.6 4.785.132 7.2-.33 9.223.432 10.76 2.365c.826 1.039 1.194 2.19 1.24 3.646zM6.002 2.612C4.14 2.61 2.606 4.146 2.615 6.003a3.398 3.398 0 003.382 3.379c1.852.003 3.374-1.511 3.387-3.374.013-1.855-1.52-3.395-3.382-3.397z" fill="#E95229"/></g><defs><clipPath id="clip0_556_824"><path fill="#fff" d="M0 0h12v19.073H0z"/></clipPath></defs></svg>