<svg width="1920" height="1921" viewBox="0 0 1920 1921" fill="none" xmlns="http://www.w3.org/2000/svg">
<g style="mix-blend-mode:darken">
<mask id="mask0_556_137" style="mask-type:alpha" maskUnits="userSpaceOnUse" x="-36" y="-1" width="2216" height="1922">
<rect x="-36" y="1921" width="1921" height="2216" rx="6" transform="rotate(-90 -36 1921)" fill="#FAF9F8" fill-opacity="0.85"/>
</mask>
<g mask="url(#mask0_556_137)">
<ellipse cx="210.725" cy="1149.55" rx="210.725" ry="1149.55" transform="matrix(0.72604 -0.687653 0.652433 0.757847 -69.2207 569.812)" fill="url(#paint0_radial_556_137)"/>
<ellipse cx="282.971" cy="867.865" rx="282.971" ry="867.865" transform="matrix(-0.704365 0.709838 -0.675467 -0.73739 1920.58 723.965)" fill="url(#paint1_radial_556_137)"/>
<ellipse cx="207.661" cy="2327.77" rx="207.661" ry="2327.77" transform="matrix(-0.704365 0.709838 -0.675467 -0.73739 2368.53 2310.09)" fill="url(#paint2_radial_556_137)"/>
<ellipse cx="207.661" cy="1688.89" rx="207.661" ry="1688.89" transform="matrix(-0.704365 0.709838 -0.675467 -0.73739 1406.33 2603.03)" fill="url(#paint3_radial_556_137)" fill-opacity="0.6"/>
<ellipse cx="941.549" cy="227.995" rx="941.549" ry="227.995" transform="matrix(-0.69004 -0.723771 0.69004 -0.723772 892.758 2023.86)" fill="url(#paint4_radial_556_137)"/>
<ellipse cx="227.487" cy="1137.77" rx="227.487" ry="1137.77" transform="matrix(0.69004 -0.723772 0.69004 0.723771 634.086 -63.8049)" fill="url(#paint5_radial_556_137)" fill-opacity="0.7"/>
</g>
</g>
<g style="mix-blend-mode:darken">
<mask id="mask1_556_137" style="mask-type:alpha" maskUnits="userSpaceOnUse" x="-36" y="0" width="2216" height="1920">
<rect x="-36" y="1920" width="1920" height="2216" rx="6" transform="rotate(-90 -36 1920)" fill="#FAF9F8" fill-opacity="0.85"/>
</mask>
<g mask="url(#mask1_556_137)">
<ellipse cx="210.673" cy="1149.2" rx="210.673" ry="1149.2" transform="matrix(0.726218 -0.687464 0.652628 0.757679 -69.2207 569.516)" fill="url(#paint6_radial_556_137)"/>
<ellipse cx="282.897" cy="867.619" rx="282.897" ry="867.619" transform="matrix(-0.704549 0.709655 -0.675658 -0.737215 1920.58 723.589)" fill="url(#paint7_radial_556_137)"/>
<ellipse cx="242.049" cy="1841.19" rx="242.049" ry="1841.19" transform="matrix(-0.704549 0.709655 -0.675658 -0.737215 2610.92 2196.94)" fill="url(#paint8_radial_556_137)" fill-opacity="0.7"/>
<ellipse cx="1451.75" cy="262.834" rx="1451.75" ry="262.834" transform="matrix(-0.690228 -0.723592 0.690228 -0.723592 1549.85 2558.74)" fill="url(#paint9_radial_556_137)"/>
</g>
</g>
<defs>
<radialGradient id="paint0_radial_556_137" cx="0" cy="0" r="1" gradientUnits="userSpaceOnUse" gradientTransform="translate(210.725 1149.55) rotate(90) scale(1149.55 210.725)">
<stop stop-color="#D1D1D1"/>
<stop offset="1" stop-color="#F0F0F0" stop-opacity="0"/>
</radialGradient>
<radialGradient id="paint1_radial_556_137" cx="0" cy="0" r="1" gradientUnits="userSpaceOnUse" gradientTransform="translate(282.971 867.865) rotate(90) scale(867.865 282.971)">
<stop stop-color="#D1D1D1"/>
<stop offset="1" stop-color="#F0F0F0" stop-opacity="0"/>
</radialGradient>
<radialGradient id="paint2_radial_556_137" cx="0" cy="0" r="1" gradientUnits="userSpaceOnUse" gradientTransform="translate(207.661 2327.77) rotate(90) scale(2327.77 207.661)">
<stop stop-color="#D1D1D1"/>
<stop offset="1" stop-color="#F0F0F0" stop-opacity="0"/>
</radialGradient>
<radialGradient id="paint3_radial_556_137" cx="0" cy="0" r="1" gradientUnits="userSpaceOnUse" gradientTransform="translate(207.661 1688.89) rotate(90) scale(1688.89 207.661)">
<stop stop-color="#D1D1D1"/>
<stop offset="1" stop-color="#F0F0F0" stop-opacity="0"/>
</radialGradient>
<radialGradient id="paint4_radial_556_137" cx="0" cy="0" r="1" gradientUnits="userSpaceOnUse" gradientTransform="translate(941.549 227.995) rotate(90) scale(227.995 941.549)">
<stop stop-color="#D1D1D1"/>
<stop offset="1" stop-color="#F0F0F0" stop-opacity="0"/>
</radialGradient>
<radialGradient id="paint5_radial_556_137" cx="0" cy="0" r="1" gradientUnits="userSpaceOnUse" gradientTransform="translate(227.487 1137.77) rotate(90) scale(1137.77 227.487)">
<stop stop-color="#D1D1D1"/>
<stop offset="1" stop-color="#F0F0F0" stop-opacity="0"/>
</radialGradient>
<radialGradient id="paint6_radial_556_137" cx="0" cy="0" r="1" gradientUnits="userSpaceOnUse" gradientTransform="translate(210.673 1149.2) rotate(90) scale(1149.2 210.673)">
<stop stop-color="#D1D1D1"/>
<stop offset="1" stop-color="#F0F0F0" stop-opacity="0"/>
</radialGradient>
<radialGradient id="paint7_radial_556_137" cx="0" cy="0" r="1" gradientUnits="userSpaceOnUse" gradientTransform="translate(282.897 867.619) rotate(90) scale(867.619 282.897)">
<stop stop-color="#D1D1D1"/>
<stop offset="1" stop-color="#F0F0F0" stop-opacity="0"/>
</radialGradient>
<radialGradient id="paint8_radial_556_137" cx="0" cy="0" r="1" gradientUnits="userSpaceOnUse" gradientTransform="translate(242.049 1841.19) rotate(90) scale(1841.19 242.049)">
<stop stop-color="#D1D1D1"/>
<stop offset="1" stop-color="#F0F0F0" stop-opacity="0"/>
</radialGradient>
<radialGradient id="paint9_radial_556_137" cx="0" cy="0" r="1" gradientUnits="userSpaceOnUse" gradientTransform="translate(1451.75 262.834) rotate(90) scale(262.834 1451.75)">
<stop stop-color="#D1D1D1"/>
<stop offset="1" stop-color="#F0F0F0" stop-opacity="0"/>
</radialGradient>
</defs>
</svg>
