<svg width="1920" height="1921" fill="none" xmlns="http://www.w3.org/2000/svg"><g style="mix-blend-mode:darken"><mask id="mask0_556_137" style="mask-type:alpha" maskUnits="userSpaceOnUse" x="-36" y="-1" width="2216" height="1922"><rect x="-36" y="1921" width="1921" height="2216" rx="6" transform="rotate(-90 -36 1921)" fill="#FAF9F8" fill-opacity=".85"/></mask><g mask="url(#mask0_556_137)"><ellipse cx="210.725" cy="1149.55" rx="210.725" ry="1149.55" transform="matrix(.72604 -.68765 .65243 .75785 -69.22 569.812)" fill="url(#paint0_radial_556_137)"/><ellipse cx="282.971" cy="867.865" rx="282.971" ry="867.865" transform="matrix(-.70437 .70984 -.67547 -.73739 1920.58 723.965)" fill="url(#paint1_radial_556_137)"/><ellipse cx="207.661" cy="2327.77" rx="207.661" ry="2327.77" transform="matrix(-.70437 .70984 -.67547 -.73739 2368.53 2310.09)" fill="url(#paint2_radial_556_137)"/><ellipse cx="207.661" cy="1688.89" rx="207.661" ry="1688.89" transform="matrix(-.70437 .70984 -.67547 -.73739 1406.33 2603.03)" fill="url(#paint3_radial_556_137)" fill-opacity=".6"/><ellipse cx="941.549" cy="227.995" rx="941.549" ry="227.995" transform="scale(-.97586 -1.02357) rotate(45 1929.35 -2092.94)" fill="url(#paint4_radial_556_137)"/><ellipse cx="227.487" cy="1137.77" rx="227.487" ry="1137.77" transform="scale(.97586 1.02357) rotate(-45 249.638 -815.508)" fill="url(#paint5_radial_556_137)" fill-opacity=".7"/></g></g><g style="mix-blend-mode:darken"><mask id="mask1_556_137" style="mask-type:alpha" maskUnits="userSpaceOnUse" x="-36" y="0" width="2216" height="1920"><rect x="-36" y="1920" width="1920" height="2216" rx="6" transform="rotate(-90 -36 1920)" fill="#FAF9F8" fill-opacity=".85"/></mask><g mask="url(#mask1_556_137)"><ellipse cx="210.673" cy="1149.2" rx="210.673" ry="1149.2" transform="matrix(.72622 -.68746 .65263 .75768 -69.22 569.516)" fill="url(#paint6_radial_556_137)"/><ellipse cx="282.897" cy="867.619" rx="282.897" ry="867.619" transform="matrix(-.70455 .70966 -.67566 -.73721 1920.58 723.589)" fill="url(#paint7_radial_556_137)"/><ellipse cx="242.049" cy="1841.19" rx="242.049" ry="1841.19" transform="matrix(-.70455 .70966 -.67566 -.73721 2610.92 2196.94)" fill="url(#paint8_radial_556_137)" fill-opacity=".7"/><ellipse cx="1451.75" cy="262.834" rx="1451.75" ry="262.834" transform="scale(-.97613 -1.02331) rotate(45 2224.43 -3166.806)" fill="url(#paint9_radial_556_137)"/></g></g><defs><radialGradient id="paint0_radial_556_137" cx="0" cy="0" r="1" gradientUnits="userSpaceOnUse" gradientTransform="scale(210.725 1149.55) rotate(90 0 1)"><stop stop-color="#D1D1D1"/><stop offset="1" stop-color="#F0F0F0" stop-opacity="0"/></radialGradient><radialGradient id="paint1_radial_556_137" cx="0" cy="0" r="1" gradientUnits="userSpaceOnUse" gradientTransform="matrix(0 867.865 -282.971 0 282.971 867.865)"><stop stop-color="#D1D1D1"/><stop offset="1" stop-color="#F0F0F0" stop-opacity="0"/></radialGradient><radialGradient id="paint2_radial_556_137" cx="0" cy="0" r="1" gradientUnits="userSpaceOnUse" gradientTransform="scale(207.661 2327.77) rotate(90 0 1)"><stop stop-color="#D1D1D1"/><stop offset="1" stop-color="#F0F0F0" stop-opacity="0"/></radialGradient><radialGradient id="paint3_radial_556_137" cx="0" cy="0" r="1" gradientUnits="userSpaceOnUse" gradientTransform="scale(207.661 1688.89) rotate(90 0 1)"><stop stop-color="#D1D1D1"/><stop offset="1" stop-color="#F0F0F0" stop-opacity="0"/></radialGradient><radialGradient id="paint4_radial_556_137" cx="0" cy="0" r="1" gradientUnits="userSpaceOnUse" gradientTransform="scale(941.549 227.995) rotate(90 0 1)"><stop stop-color="#D1D1D1"/><stop offset="1" stop-color="#F0F0F0" stop-opacity="0"/></radialGradient><radialGradient id="paint5_radial_556_137" cx="0" cy="0" r="1" gradientUnits="userSpaceOnUse" gradientTransform="scale(227.487 1137.77) rotate(90 0 1)"><stop stop-color="#D1D1D1"/><stop offset="1" stop-color="#F0F0F0" stop-opacity="0"/></radialGradient><radialGradient id="paint6_radial_556_137" cx="0" cy="0" r="1" gradientUnits="userSpaceOnUse" gradientTransform="scale(210.673 1149.2) rotate(90 0 1)"><stop stop-color="#D1D1D1"/><stop offset="1" stop-color="#F0F0F0" stop-opacity="0"/></radialGradient><radialGradient id="paint7_radial_556_137" cx="0" cy="0" r="1" gradientUnits="userSpaceOnUse" gradientTransform="scale(282.897 867.619) rotate(90 0 1)"><stop stop-color="#D1D1D1"/><stop offset="1" stop-color="#F0F0F0" stop-opacity="0"/></radialGradient><radialGradient id="paint8_radial_556_137" cx="0" cy="0" r="1" gradientUnits="userSpaceOnUse" gradientTransform="scale(242.049 1841.19) rotate(90 0 1)"><stop stop-color="#D1D1D1"/><stop offset="1" stop-color="#F0F0F0" stop-opacity="0"/></radialGradient><radialGradient id="paint9_radial_556_137" cx="0" cy="0" r="1" gradientUnits="userSpaceOnUse" gradientTransform="matrix(0 262.834 -1451.75 0 1451.75 262.834)"><stop stop-color="#D1D1D1"/><stop offset="1" stop-color="#F0F0F0" stop-opacity="0"/></radialGradient></defs></svg>