<svg width="18" height="18" fill="none" xmlns="http://www.w3.org/2000/svg"><g id="Group 277131312"><g id="Group 277131247"><circle id="Ellipse 23" cx="8.794" cy="8.884" r="8.794" fill="#F55"/></g><path id="Vector" d="M10.138 10c1.415 0 2.565-1.126 2.565-2.512 0-1.385-1.15-2.512-2.565-2.512H7.573c-.315 0-.57.25-.57.558v3.35h-.57c-.314 0-.57.25-.57.558 0 .31.256.559.57.559h.57v.558h-.57c-.314 0-.57.25-.57.558 0 .309.256.559.57.559h.57v.558c0 .309.255.559.57.559.315 0 .57-.25.57-.559v-.558h2.85c.315 0 .57-.25.57-.559a.564.564 0 00-.57-.558h-2.85v-.558h1.995zM8.143 6.093h1.995c.786 0 1.425.627 1.425 1.396 0 .77-.64 1.396-1.425 1.396H8.143V6.092z" fill="#fff"/></g></svg>