<svg width="29" height="29" fill="none" xmlns="http://www.w3.org/2000/svg"><g filter="url(#filter0_i_556_988)"><circle cx="14.5" cy="14.5" r="14.5" fill="url(#paint0_linear_556_988)"/></g><g clip-path="url(#clip0_556_988)"><path d="M20.37 9.96c-.086.654-.171 1.45-.299 2.24a684.605 684.605 0 01-1.09 6.512c-.043.26-.113.515-.21.76-.22.548-.595.726-1.154.533a3.287 3.287 0 01-.742-.384 267.068 267.068 0 01-3.401-2.3 3.008 3.008 0 01-.513-.43c-.211-.23-.222-.466-.041-.722a3.16 3.16 0 01.41-.469c.99-.946 1.987-1.886 2.982-2.832.215-.204.418-.42.622-.636.103-.11.244-.237.112-.392-.132-.155-.294-.054-.43.033-.432.276-.865.551-1.29.835-1.25.836-2.494 1.688-3.757 2.5a3.48 3.48 0 01-1.096.462c-.273.063-.593.006-.873-.068-.681-.178-1.347-.395-2.02-.601a1.47 1.47 0 01-.289-.124c-.36-.2-.39-.481-.068-.737.133-.103.278-.19.432-.256A4606.79 4606.79 0 0118.24 9.41a7.15 7.15 0 011.21-.376c.606-.138.932.156.92.926z" fill="#fff"/></g><defs><linearGradient id="paint0_linear_556_988" x1="22.371" y1="0" x2="10.771" y2="29" gradientUnits="userSpaceOnUse"><stop stop-color="#77BBEF"/><stop offset="1" stop-color="#4898D5"/></linearGradient><clipPath id="clip0_556_988"><path fill="#fff" transform="translate(7 9)" d="M0 0h13.371v11.08H0z"/></clipPath><filter id="filter0_i_556_988" x="0" y="0" width="29" height="29" filterUnits="userSpaceOnUse" color-interpolation-filters="sRGB"><feFlood flood-opacity="0" result="BackgroundImageFix"/><feBlend in="SourceGraphic" in2="BackgroundImageFix" result="shape"/><feColorMatrix in="SourceAlpha" values="0 0 0 0 0 0 0 0 0 0 0 0 0 0 0 0 0 0 127 0" result="hardAlpha"/><feOffset/><feGaussianBlur stdDeviation="2.5"/><feComposite in2="hardAlpha" operator="arithmetic" k2="-1" k3="1"/><feColorMatrix values="0 0 0 0 1 0 0 0 0 1 0 0 0 0 1 0 0 0 1 0"/><feBlend in2="shape" result="effect1_innerShadow_556_988"/></filter></defs></svg>